<?xml version="1.0" standalone="no"?>
<!DOCTYPE svg PUBLIC "-//W3C//DTD SVG 20010904//EN"
 "http://www.w3.org/TR/2001/REC-SVG-20010904/DTD/svg10.dtd">
<svg version="1.0" xmlns="http://www.w3.org/2000/svg"
 width="271.000000pt" height="254.000000pt" viewBox="0 0 271.000000 254.000000"
 preserveAspectRatio="xMidYMid meet">
<metadata>
Created by potrace 1.16, written by Peter Selinger 2001-2019
</metadata>
<g transform="translate(0.000000,254.000000) scale(0.100000,-0.100000)"
fill="#000000" stroke="none">
<path d="M0 1270 l0 -1270 1355 0 1355 0 0 1270 0 1270 -1355 0 -1355 0 0
-1270z m1640 776 c192 -31 328 -101 465 -240 102 -103 162 -199 206 -330 33
-99 53 -266 40 -346 l-8 -55 -8 43 c-4 25 -13 42 -21 42 -8 0 -14 5 -14 10 0
6 4 10 9 10 36 0 -57 207 -142 318 -102 132 -265 244 -443 304 -60 20 -88 23
-214 22 -128 0 -155 -4 -234 -28 -178 -54 -343 -160 -442 -284 -54 -67 -136
-233 -155 -312 -7 -30 -21 -64 -31 -76 -10 -11 -18 -36 -18 -56 0 -20 -7 -43
-15 -52 -16 -16 -18 -37 -9 -73 8 -30 24 -30 24 0 0 12 9 30 20 40 11 9 20 24
20 33 0 20 39 15 54 -8 8 -13 6 -21 -7 -36 -21 -23 -22 -61 -2 -68 9 -4 23 4
34 17 16 19 22 21 32 12 10 -10 10 -18 1 -38 -11 -24 -17 -75 -9 -75 2 0 33
14 68 32 35 18 71 33 79 34 16 2 76 22 100 34 22 11 69 140 63 173 -3 16 -1
27 6 27 6 0 11 7 11 15 0 9 6 15 13 14 27 -3 34 3 52 56 10 30 22 55 27 55 5
0 25 -12 44 -26 27 -21 33 -31 28 -50 -7 -29 7 -31 31 -4 9 10 37 27 62 36 62
24 108 9 162 -54 59 -66 61 -69 61 -89 0 -10 9 -26 20 -36 11 -9 20 -24 20
-33 0 -14 -3 -14 -15 -4 -13 10 -15 9 -15 -9 0 -13 6 -21 16 -21 13 0 14 -3 5
-14 -8 -10 -9 -16 -1 -21 6 -4 10 -12 9 -18 -1 -7 5 -29 15 -49 9 -21 15 -41
14 -45 0 -5 2 -15 5 -23 10 -25 69 -253 72 -280 1 -14 -2 -33 -7 -42 -13 -26
16 -24 43 3 15 15 19 28 15 55 -3 18 -2 34 3 34 14 0 18 -50 8 -82 -5 -15 -18
-30 -30 -34 -12 -4 -35 -22 -51 -41 -32 -39 -175 -111 -271 -138 -132 -36
-365 -29 -475 14 -158 62 -185 68 -218 49 -26 -15 -31 -16 -58 -2 -16 8 -37
24 -47 35 -10 10 -24 19 -32 19 -7 0 -26 14 -42 30 -15 17 -43 40 -60 51 -18
11 -33 28 -33 37 0 9 -9 28 -20 42 -27 34 -25 39 15 56 33 13 48 34 25 34 -6
0 -15 11 -20 25 -5 14 -16 25 -25 25 -8 0 -23 17 -34 38 -11 21 -27 44 -35 51
-9 8 -16 24 -16 37 0 16 -8 28 -25 36 -14 6 -26 16 -26 22 -1 6 -2 16 -3 23
-2 18 -45 63 -60 63 -19 0 -28 15 -33 54 -2 17 -6 39 -9 48 -3 10 -1 18 3 18
23 0 50 39 46 64 -4 19 -1 26 10 26 9 0 20 -7 25 -16 6 -11 16 -13 35 -9 29 8
29 9 46 112 13 80 77 233 132 314 75 112 216 238 329 293 l35 17 -46 -48
c-117 -121 -229 -335 -229 -437 0 -23 3 -27 12 -18 7 7 22 12 33 12 18 0 21
-5 18 -32 -2 -18 8 5 21 52 45 157 102 261 204 371 198 213 478 311 762 265z
m-340 -397 c0 -4 -6 -10 -12 -13 -7 -3 42 -3 110 -1 70 3 122 2 122 -3 0 -8
-42 -11 -217 -16 -23 -1 -44 -4 -47 -7 -4 -3 0 -24 8 -46 19 -55 8 -105 -24
-114 -40 -11 -80 -10 -80 2 0 6 7 9 15 5 22 -8 43 19 39 51 -1 15 2 33 8 40 6
7 7 24 4 39 -4 15 -3 23 3 20 5 -3 12 1 15 10 4 11 0 14 -16 12 -15 -2 -24 3
-26 13 -3 14 6 17 47 16 28 0 51 -4 51 -8z m558 -13 c86 -44 172 -117 247
-211 21 -28 58 -70 80 -95 50 -55 88 -120 104 -180 14 -48 29 -84 59 -140 45
-83 57 -116 57 -154 0 -23 -5 -43 -12 -46 -8 -4 -6 -16 7 -42 10 -20 15 -40
11 -43 -3 -4 3 -5 13 -3 14 2 21 -5 27 -27 5 -17 5 -33 -1 -39 -15 -15 -12
-26 5 -26 8 0 15 -6 15 -14 0 -9 -7 -12 -19 -9 -15 4 -19 -3 -24 -39 -3 -24
-2 -47 4 -53 6 -5 9 -4 9 4 0 7 5 9 10 6 7 -4 4 -17 -7 -36 -15 -25 -16 -33
-5 -50 8 -12 11 -23 8 -26 -8 -9 -26 7 -26 23 0 9 -6 14 -12 11 -7 -2 -12 -12
-10 -22 2 -12 -1 -16 -11 -12 -16 6 -57 -31 -57 -51 0 -7 -6 -12 -12 -12 -10
0 -10 -2 0 -9 9 -5 11 -17 6 -35 -3 -15 -2 -26 2 -25 18 3 34 -1 34 -10 0 -12
-68 -7 -82 7 -29 29 -60 7 -39 -27 19 -30 1 -44 -50 -37 -31 4 -49 3 -49 -3 0
-6 -11 -13 -24 -17 -17 -4 -23 -11 -19 -21 5 -12 1 -14 -15 -8 -19 5 -22 2
-22 -18 0 -27 -14 -37 -42 -29 -25 6 -23 43 5 96 21 40 54 66 84 66 7 0 13 5
13 10 0 6 -6 10 -14 10 -8 0 -16 6 -19 13 -2 7 -27 -9 -64 -43 -73 -67 -113
-99 -151 -120 -16 -8 -43 -23 -60 -32 -17 -10 -39 -19 -49 -21 -25 -4 -125
-36 -143 -46 -26 -14 -367 -8 -382 7 -6 6 -27 12 -44 12 -18 0 -35 4 -38 9 -3
5 -21 12 -39 15 -18 3 -42 14 -53 24 -28 24 -61 42 -78 42 -15 0 -66 48 -66
62 0 9 61 -1 75 -13 20 -15 183 -30 281 -26 103 4 204 23 204 38 0 5 11 9 25
9 14 0 25 3 25 8 0 4 12 8 27 9 15 0 32 8 39 17 6 9 18 16 27 16 26 0 96 40
108 61 5 11 16 19 24 19 7 0 22 11 33 25 11 14 24 25 30 25 27 0 152 174 190
265 35 84 60 194 67 295 3 52 8 102 11 111 2 9 -11 32 -31 54 -20 20 -45 55
-55 76 -23 44 -46 59 -89 59 -16 0 -31 6 -34 13 -2 6 -11 -5 -20 -26 -22 -50
-117 -141 -125 -119 -2 7 -11 12 -20 13 -12 0 -13 2 -4 6 10 4 8 9 -7 20 -12
8 -25 12 -30 8 -5 -3 -13 0 -16 6 -4 5 -14 8 -22 5 -8 -4 -11 -1 -7 5 3 6 14
9 23 6 14 -3 17 4 17 43 0 57 64 200 89 200 9 0 15 6 12 13 -2 6 -10 11 -16
10 -6 -2 -11 4 -11 13 0 14 9 16 52 12 40 -4 57 -11 75 -32 24 -29 43 -27 43
3 0 25 -10 31 -118 76 -51 21 -91 40 -88 42 3 3 89 -25 161 -53 19 -7 19 -7 3
13 -10 11 -18 24 -18 29 0 6 -13 23 -30 39 -52 50 -37 59 38 21z"/>
<path d="M1128 1123 c-41 -11 -22 -80 25 -90 20 -4 26 -10 22 -21 -19 -51 -25
-99 -16 -125 9 -22 17 -27 45 -27 19 0 38 -5 42 -12 5 -8 -2 -9 -24 -5 -34 7
-49 -5 -29 -22 22 -18 99 -42 117 -36 9 3 21 20 27 39 10 33 9 34 -29 56 -57
32 -106 111 -111 179 -5 62 -21 77 -69 64z"/>
<path d="M1540 920 c-8 -11 -19 -19 -25 -17 -5 2 -18 -5 -29 -14 -10 -10 -23
-16 -27 -13 -4 2 -10 0 -14 -6 -3 -5 -19 -10 -35 -10 -20 0 -35 -8 -45 -23
-13 -21 -13 -28 2 -65 9 -23 20 -42 25 -42 4 0 8 -6 8 -13 0 -8 11 -27 25 -43
13 -15 22 -30 20 -33 -3 -2 0 -10 5 -17 12 -13 19 -42 25 -94 2 -19 4 -39 6
-45 1 -5 -3 -29 -11 -53 -12 -38 -17 -43 -36 -38 -13 4 -26 2 -29 -4 -7 -11 0
-12 69 -10 90 3 255 47 214 57 -21 5 -28 26 -33 98 -3 31 -12 80 -20 110 -9
30 -18 67 -21 82 -3 15 -12 53 -20 83 -9 30 -17 62 -18 70 -1 9 -5 21 -10 28
-4 6 -4 17 -1 22 12 19 -11 10 -25 -10z"/>
<path d="M1793 1427 c-13 -5 -24 -17 -25 -26 0 -9 -2 -20 -3 -26 -2 -5 -3 -16
-4 -22 0 -7 -6 -13 -12 -13 -6 0 -8 7 -5 16 3 8 2 13 -3 10 -12 -8 -41 -94
-41 -122 0 -59 24 -69 61 -26 29 33 52 82 39 82 -6 0 -9 12 -9 28 1 16 3 20 6
10 7 -26 20 -22 29 10 19 67 6 98 -33 79z"/>
</g>
</svg>
